<svg xmlns="http://www.w3.org/2000/svg" viewBox="0 0 280 70">
  <defs>
    <!-- House wall fill -->
    <linearGradient id="wallFill" x1="0%" y1="0%" x2="100%" y2="100%">
      <stop offset="0%" style="stop-color:#fdf6f0"/>
      <stop offset="100%" style="stop-color:#f5ebe0"/>
    </linearGradient>

    <!-- Roof gradient -->
    <linearGradient id="roofGrad" x1="0%" y1="0%" x2="100%" y2="100%">
      <stop offset="0%" style="stop-color:#e27d60"/>
      <stop offset="100%" style="stop-color:#c38d9e"/>
    </linearGradient>

    <!-- Door fill -->
    <linearGradient id="doorFill" x1="0%" y1="0%" x2="100%" y2="100%">
      <stop offset="0%" style="stop-color:#e8a87c"/>
      <stop offset="100%" style="stop-color:#e27d60"/>
    </linearGradient>

    <!-- Window fill -->
    <linearGradient id="windowFill" x1="0%" y1="0%" x2="100%" y2="100%">
      <stop offset="0%" style="stop-color:#41b3a3"/>
      <stop offset="100%" style="stop-color:#85cdca"/>
    </linearGradient>

    <!-- Text color -->
    <linearGradient id="textGrad" x1="0%" y1="0%" x2="100%" y2="0%">
      <stop offset="0%" style="stop-color:#2c3e50"/>
      <stop offset="100%" style="stop-color:#34495e"/>
    </linearGradient>

    <!-- Colorful underline -->
    <linearGradient id="underlineGrad" x1="0%" y1="0%" x2="100%" y2="0%">
      <stop offset="0%" style="stop-color:#e8a87c"/>
      <stop offset="33%" style="stop-color:#c38d9e"/>
      <stop offset="66%" style="stop-color:#41b3a3"/>
      <stop offset="100%" style="stop-color:#85cdca"/>
    </linearGradient>
  </defs>

  <!-- House icon with filled colors -->
  <g transform="translate(8, 8)">
    <!-- House walls - filled -->
    <path d="M5 22 L5 52 L45 52 L45 22" fill="url(#wallFill)" stroke="#d4a574" stroke-width="1.5"/>

    <!-- Roof - filled -->
    <path d="M25 4 L0 24 L50 24 Z" fill="url(#roofGrad)"/>

    <!-- Door - filled with arch -->
    <path d="M18 52 L18 34 Q25 26 32 34 L32 52 Z" fill="url(#doorFill)"/>

    <!-- Left window - filled -->
    <rect x="8" y="30" width="7" height="9" rx="1" fill="url(#windowFill)"/>
    <line x1="11.5" y1="30" x2="11.5" y2="39" stroke="#fff" stroke-width="0.8" opacity="0.6"/>

    <!-- Right window - filled -->
    <rect x="35" y="30" width="7" height="9" rx="1" fill="url(#windowFill)"/>
    <line x1="38.5" y1="30" x2="38.5" y2="39" stroke="#fff" stroke-width="0.8" opacity="0.6"/>

    <!-- Door handle -->
    <circle cx="29" cy="43" r="1.5" fill="#c19a6b"/>
  </g>

  <!-- Brand name - smaller -->
  <text x="68" y="32"
        font-family="'Playfair Display', Georgia, serif"
        font-size="22"
        fill="#2c3e50"
        font-weight="600"
        letter-spacing="0.3">Colour My Space</text>

  <!-- Colorful decorative line -->
  <line x1="68" y1="40" x2="185" y2="40" stroke="url(#underlineGrad)" stroke-width="1.5" stroke-linecap="round"/>

  <!-- Tagline -->
  <text x="68" y="54"
        font-family="'Montserrat', Arial, sans-serif"
        font-size="8"
        fill="#7f8c8d"
        font-weight="600"
        letter-spacing="3">INTERIOR DESIGN STUDIO</text>
</svg>
